<svg version="1.1" id="Layer_1" xmlns="http://www.w3.org/2000/svg" xmlns:xlink="http://www.w3.org/1999/xlink" x="0px"
    y="0px" width="100%" viewBox="330 100 400 250" enable-background="new 0 0 1024 576" xml:space="preserve">
    <path fill="#9f0124" opacity="1.000000" stroke="none" d="
M532.048218,256.869995 
	C543.542297,253.878113 554.641724,250.999817 565.722717,248.052429 
	C571.891602,246.411575 572.796753,246.983673 573.203186,253.140839 
	C574.894714,278.769592 558.559692,300.523193 533.166931,304.824890 
	C507.508118,309.171661 485.342926,293.094910 478.300537,270.858521 
	C470.452454,246.078049 482.950134,220.813477 507.422943,212.056854 
	C513.327942,209.944000 514.204468,210.491394 514.231689,216.634888 
	C514.281738,227.951096 514.221069,239.267792 514.267456,250.584030 
	C514.302795,259.199768 516.582703,260.951447 524.932617,258.864441 
	C527.188538,258.300598 529.409119,257.595184 532.048218,256.869995 
M559.271179,259.315674 
	C557.923584,259.623962 555.990051,259.245789 556.250610,261.581482 
	C556.480713,263.644165 561.811340,266.858185 564.313538,266.414948 
	C566.259888,266.070190 567.937195,265.053406 567.555542,262.802429 
	C566.920166,259.055206 563.963257,259.046326 561.028015,259.223572 
	C560.698242,259.243500 560.367981,259.255981 559.271179,259.315674 
M519.038574,298.193054 
	C520.489929,299.974457 522.107056,299.750549 523.043213,297.950409 
	C524.628052,294.902954 523.251221,292.310333 521.067566,289.426575 
	C519.165649,292.207397 517.992249,294.600464 519.038574,298.193054 
M493.367981,247.697968 
	C491.872772,247.765305 491.040985,248.628693 491.728241,249.947067 
	C492.734100,251.876556 494.576752,252.427780 496.905579,252.128311 
	C497.064545,249.696716 495.564240,248.753204 493.367981,247.697968 
M546.420349,287.027161 
	C543.700134,286.910706 545.035706,288.776550 545.354004,289.655334 
	C546.002258,291.444672 547.316956,292.284790 549.248962,291.133575 
	C549.938599,288.931915 548.356567,288.149719 546.420349,287.027161 
M502.690155,279.879608 
	C505.653961,281.260468 506.569122,279.477081 507.359039,277.076172 
	C504.284485,276.768951 504.284485,276.768951 502.690155,279.879608 
z" />
    <path fill="#047b3b" opacity="1.000000" stroke="none" d="
M632.395569,229.443604 
	C621.890808,234.844513 611.917053,240.625000 601.346741,244.945694 
	C593.222473,248.266495 584.558228,246.817444 576.715271,242.738846 
	C572.164185,240.372070 569.400879,236.535477 569.628906,231.049713 
	C569.801208,226.904663 572.036133,224.628601 575.987854,223.955856 
	C594.019043,220.886307 605.155701,210.137207 608.274353,192.419144 
	C608.841125,189.199356 609.966492,185.537720 606.279602,182.549118 
	C604.870056,184.709503 605.569824,186.879776 605.340088,188.875168 
	C603.739746,202.777084 597.295166,213.362793 584.226074,219.225006 
	C580.297424,220.987198 576.006470,221.798141 572.634644,218.166840 
	C569.412415,214.696640 568.622437,210.237976 570.810303,206.078476 
	C578.491333,191.475510 588.907349,180.125214 606.565430,178.338409 
	C617.647827,177.216995 630.584900,184.670303 635.751404,194.942688 
	C641.459595,206.292084 640.163940,220.693604 632.395569,229.443604 
M589.396729,229.856583 
	C601.222290,221.789200 613.890686,219.094803 627.789124,223.914536 
	C616.848572,217.841751 606.005981,218.357986 595.155701,223.957275 
	C587.242554,228.040802 584.838745,230.707794 585.043213,235.550064 
	C586.349365,233.736832 586.908875,231.509552 589.396729,229.856583 
z" />
    <path fill="#e87210" opacity="1.000000" stroke="none" d="
M523.917480,182.245209 
	C516.902527,183.527115 513.025391,180.503845 509.956177,174.870529 
	C505.176239,166.097260 501.529327,157.121262 501.830109,146.963776 
	C501.949310,142.938477 500.888824,139.439743 498.377930,136.309479 
	C497.551208,135.278793 496.799377,134.132797 496.275604,132.925720 
	C495.148010,130.327179 493.630768,127.366669 495.400757,124.851585 
	C497.008606,122.566971 500.108337,123.796638 502.471497,123.956451 
	C512.275513,124.619400 521.908264,123.535446 531.616150,122.287102 
	C537.740601,121.499550 543.836304,120.637947 549.890747,119.483330 
	C553.162109,118.859482 554.006592,120.517105 554.224487,123.277458 
	C554.474854,126.448677 553.411377,129.186493 551.677979,131.704361 
	C548.252380,136.680115 547.972473,142.055344 548.650818,147.921783 
	C549.850220,158.295822 549.997253,168.711456 552.975281,178.944656 
	C554.978638,185.828934 550.477539,188.916656 543.803223,186.328613 
	C537.557495,183.906738 531.143250,182.243027 523.917480,182.245209 
M533.878662,145.723572 
	C534.420837,146.726639 534.840454,147.825333 535.532349,148.711456 
	C536.715088,150.226059 538.268677,151.182419 540.251465,150.308151 
	C541.720093,149.660614 541.868408,148.244278 541.486450,146.928650 
	C540.746704,144.381058 539.141602,142.576447 536.374023,142.232330 
	C534.351257,141.980835 533.148254,142.738373 533.878662,145.723572 
z" />
    <path fill="#e87210" opacity="1.000000" stroke="none" d="
M478.078796,196.071518 
	C474.234711,199.279282 470.556793,202.148819 467.177338,205.334946 
	C464.797760,207.578339 463.120209,207.397217 460.954254,205.066833 
	C457.167969,200.993027 454.271942,196.363541 451.825256,191.439301 
	C449.812683,187.388733 447.004089,184.489670 442.639587,182.846298 
	C437.917175,181.068192 433.965607,178.046539 430.805084,173.984344 
	C428.731323,171.318970 429.135254,169.749741 432.143768,168.247437 
	C442.395111,163.128494 451.735138,156.474121 460.875092,149.697678 
	C469.327698,143.430801 478.578735,138.014572 485.235291,128.726685 
	C489.308868,133.482758 492.488037,137.630753 491.413696,143.468109 
	C490.459595,148.652084 491.319427,153.372696 494.157043,157.776581 
	C498.117767,163.923508 502.090942,170.062653 506.009613,176.236359 
	C507.140594,178.018204 508.414032,179.774979 508.814209,182.406403 
	C498.052307,185.776901 487.527252,189.332245 478.078796,196.071518 
M485.099976,163.828278 
	C487.360474,163.650314 489.449280,163.084061 487.684296,160.279861 
	C486.136719,157.821075 483.612457,156.999847 480.757172,157.895355 
	C479.315277,158.347580 477.585266,159.147705 477.852386,160.813828 
	C478.333801,163.816483 481.112762,163.526993 483.339264,163.851471 
	C483.662872,163.898651 483.998962,163.860214 485.099976,163.828278 
M459.599487,181.733994 
	C460.198608,179.661240 460.136566,177.721817 458.021271,176.552917 
	C456.926849,175.948181 455.691162,176.153000 454.911743,177.234528 
	C453.857086,178.697998 453.724854,180.436066 454.656189,181.905075 
	C455.855743,183.797241 457.537415,183.920425 459.599487,181.733994 
z" />
    <path fill="#047b3b" opacity="1.000000" stroke="none" d="
M460.289368,213.475281 
	C455.280457,220.514236 452.256866,228.237122 448.621735,236.441513 
	C442.324219,230.521317 443.547638,221.688004 437.791077,215.763885 
	C437.953094,220.126450 440.753174,223.602036 439.472778,227.640259 
	C435.731201,228.565704 434.080353,224.573517 430.551605,224.227203 
	C433.819000,232.777328 442.449493,236.506287 448.089935,244.222473 
	C440.411987,245.884537 433.610901,244.389252 426.239807,245.419403 
	C431.754700,248.622543 437.271515,248.740250 442.593170,249.285217 
	C446.131866,249.647614 447.474060,250.924881 447.390228,254.564529 
	C447.276550,259.500427 447.757690,264.450073 447.971008,269.116333 
	C446.489105,270.364258 445.384979,269.705353 444.401489,269.195831 
	C427.670135,260.527466 413.364197,249.178818 404.032654,232.395386 
	C401.591217,228.004257 399.567841,223.378235 398.862946,218.404617 
	C396.755310,203.533997 407.783478,193.470306 423.386139,196.164154 
	C434.142822,198.021317 444.075592,202.379776 453.741638,207.326904 
	C455.516968,208.235535 457.221802,209.287537 458.925323,210.328720 
	C459.950623,210.955368 460.829712,211.731445 460.289368,213.475281 
z" />
    <path fill="#047b3b" opacity="1.000000" stroke="none" d="
M537.554810,320.849487 
	C531.021423,324.499603 523.952881,324.363831 517.080505,324.032562 
	C472.390411,321.878693 448.756927,286.445038 453.194977,246.558273 
	C456.209686,219.463501 478.120941,191.968658 510.974976,187.293106 
	C521.270325,185.827957 531.606201,186.005951 541.560608,189.648911 
	C543.359985,190.307404 546.698364,190.097214 545.964233,193.171021 
	C545.315491,195.887634 542.581848,195.034286 540.418152,194.754990 
	C528.935852,193.272812 517.611389,193.197540 506.413818,197.082291 
	C477.393158,207.150330 460.719696,232.969070 463.322601,264.283844 
	C465.515747,290.669495 487.730743,313.094635 516.267029,317.896820 
	C521.564026,318.788177 526.855713,318.949188 532.190186,318.976196 
	C534.074768,318.985718 536.282532,318.225525 537.554810,320.849487 
z" />
    <path fill="#e87210" opacity="1.000000" stroke="none" d="
M586.280762,299.294464 
	C582.767517,298.758240 581.878479,296.628601 581.737122,293.872467 
	C581.475220,288.767456 583.118591,284.269501 586.618225,280.684967 
	C588.877441,278.370880 589.911682,275.940643 590.037903,272.755402 
	C590.319153,265.660461 593.435120,260.702545 600.952454,259.396729 
	C603.159912,259.013245 604.789368,257.701508 606.373779,256.099792 
	C609.927551,252.507263 614.432312,250.010498 619.410706,251.254364 
	C632.806152,254.601212 640.936096,247.843414 647.692810,237.711929 
	C649.032593,235.703018 649.751404,233.094193 652.539795,232.051987 
	C654.926880,233.632812 655.103699,236.250214 655.172546,238.620605 
	C655.258728,241.589096 656.093140,243.488113 659.045410,243.078949 
	C660.431030,245.676514 657.691772,246.777847 658.124695,248.847412 
	C661.114563,251.100830 665.304199,248.242096 668.562561,250.958984 
	C667.762573,254.141647 665.033447,254.610565 662.584534,255.292603 
	C658.188660,256.516876 653.646179,255.932663 649.170044,256.173309 
	C638.254456,256.760223 632.515869,261.226257 630.343933,271.892334 
	C628.881714,279.073029 625.616272,283.808136 617.943909,284.692474 
	C614.967285,285.035553 612.998169,287.026306 610.889893,289.009613 
	C604.132019,295.366913 596.168701,299.146271 586.280762,299.294464 
M614.868652,269.815643 
	C609.588379,274.366180 603.011658,277.111969 597.813477,281.828186 
	C605.289368,280.691864 611.604004,277.481689 616.552124,271.859436 
	C617.642090,270.621002 619.128479,268.609344 614.868652,269.815643 
M616.253662,261.584137 
	C618.438782,261.171143 620.623901,260.758179 623.300232,260.252319 
	C618.442383,257.410980 616.425293,257.868866 616.253662,261.584137 
z" />
    <path fill="#e87210" opacity="1.000000" stroke="none" d="
M545.598816,249.691315 
	C538.142944,251.733490 531.066467,253.610321 524.020386,255.595261 
	C520.149170,256.685852 518.803284,254.937744 518.731384,251.348434 
	C518.477905,238.694199 519.029236,226.026947 518.100037,213.383286 
	C517.880676,210.398651 518.980835,208.875916 522.326904,208.676483 
	C538.542542,207.710007 557.052368,218.910339 563.496399,233.816254 
	C566.890625,241.667404 566.044983,243.698792 558.017212,246.239380 
	C554.053955,247.493652 550.002441,248.469360 545.598816,249.691315 
M540.852356,225.560028 
	C538.516174,224.415665 536.096497,223.641129 533.244751,224.066086 
	C540.205078,226.231308 542.626526,234.756729 550.871277,237.069901 
	C549.545227,230.524933 545.282837,228.439316 540.852356,225.560028 
z" />
    <path fill="#9f0124" opacity="1.000000" stroke="none" d="
M447.948669,282.896790 
	C449.324860,289.392914 448.396729,295.851471 451.329102,302.581329 
	C416.920502,317.156342 380.917755,319.254944 344.497253,318.816986 
	C348.693634,316.161041 353.548553,316.473999 358.121185,315.847015 
	C386.640747,311.936371 413.622650,303.795258 437.775604,287.630951 
	C439.981171,286.154877 441.972656,284.362488 444.134552,282.816193 
	C445.243286,282.023193 446.439026,280.447449 447.948669,282.896790 
z" />
    <path fill="#9f0124" opacity="1.000000" stroke="none" d="
M673.817505,318.361511 
	C648.852722,316.699127 625.071045,312.023102 601.567444,301.891968 
	C606.706543,297.775421 611.776123,295.108643 615.302734,290.589111 
	C616.592834,288.935822 618.338135,290.039032 619.803772,290.918884 
	C639.479065,302.730347 660.896545,309.812866 683.319275,314.015564 
	C690.171753,315.299957 697.156372,315.873688 704.073669,316.822449 
	C705.749878,317.052338 707.788147,316.346344 709.377686,319.177948 
	C697.322571,319.366211 685.802124,319.606689 673.817505,318.361511 
z" />
    <path fill="#047b3b" opacity="1.000000" stroke="none" d="
M597.865051,136.811432 
	C606.723450,129.382050 617.345215,126.807716 627.748840,124.030655 
	C634.691711,122.177414 642.258240,125.955345 644.291931,131.205307 
	C644.766235,132.429703 645.476929,133.727203 644.234680,134.892487 
	C643.229858,135.834976 642.022827,135.483582 640.942566,135.052811 
	C624.695618,128.573975 611.263611,134.947220 599.072266,144.883408 
	C585.199097,156.190323 574.585083,170.631027 563.101196,184.207947 
	C560.202148,187.635391 557.293457,191.054611 554.393799,194.481491 
	C553.239990,195.845123 552.072510,196.839294 550.171570,195.557846 
	C548.028015,194.112808 549.255798,192.672501 550.091492,191.305267 
	C558.027649,178.320862 567.744690,166.729126 578.304688,155.847260 
	C584.555664,149.405838 591.149902,143.297562 597.865051,136.811432 
z" />
    <path fill="#e87210" opacity="1.000000" stroke="none" d="
M562.425781,188.459671 
	C578.553528,170.462448 593.794678,151.953979 616.562378,141.363617 
	C617.237488,144.288513 616.058960,144.875763 615.206299,145.581696 
	C596.656860,160.940399 583.072266,180.479431 569.527039,200.025421 
	C567.601990,202.803299 565.974792,204.671677 563.028931,201.777176 
	C560.627441,199.417465 554.458435,198.676102 558.763794,193.011612 
	C559.869507,191.556900 561.052185,190.160706 562.425781,188.459671 
z" />
    <path fill="#047b3b" opacity="1.000000" stroke="none" d="
M575.041138,140.093384 
	C580.323425,124.230606 599.107910,112.019768 615.537231,113.428528 
	C618.266418,113.662552 621.191833,114.086433 621.435852,117.563004 
	C621.667725,120.866280 619.150696,122.160683 616.384949,122.750977 
	C614.609070,123.129982 612.756409,123.180649 610.933044,123.300140 
	C600.675964,123.972305 592.330139,128.023972 586.626282,136.869827 
	C585.456421,138.684036 584.268555,140.539917 582.788818,142.090042 
	C579.546814,145.486313 577.159546,144.926300 575.041138,140.093384 
z" />
    <path fill="#047b3b" opacity="1.000000" stroke="none" d="
M636.144409,144.572037 
	C638.501404,145.478897 640.158630,146.647400 639.798523,149.047409 
	C639.436279,151.462158 637.724548,152.935867 635.380310,153.117722 
	C628.868896,153.622894 623.700989,156.481613 619.530945,161.416351 
	C618.198242,162.993347 616.471313,164.351120 614.355591,162.938171 
	C612.140991,161.459152 612.550049,159.266876 613.436401,157.136093 
	C616.777405,149.104080 626.630920,143.508377 636.144409,144.572037 
z" />
</svg>