<svg version="1.1" id="Layer_1" xmlns="http://www.w3.org/2000/svg" xmlns:xlink="http://www.w3.org/1999/xlink" x="0px"
    y="0px" width="100%" viewBox="290 100 500 380" enable-background="new 0 0 1024 576" xml:space="preserve">
    <path fill="#9f0124" opacity="1.000000" stroke="none" d="
M532.048218,256.869995 
	C543.542297,253.878113 554.641724,250.999817 565.722717,248.052429 
	C571.891602,246.411575 572.796753,246.983673 573.203186,253.140839 
	C574.894714,278.769592 558.559692,300.523193 533.166931,304.824890 
	C507.508118,309.171661 485.342926,293.094910 478.300537,270.858521 
	C470.452454,246.078049 482.950134,220.813477 507.422943,212.056854 
	C513.327942,209.944000 514.204468,210.491394 514.231689,216.634888 
	C514.281738,227.951096 514.221069,239.267792 514.267456,250.584030 
	C514.302795,259.199768 516.582703,260.951447 524.932617,258.864441 
	C527.188538,258.300598 529.409119,257.595184 532.048218,256.869995 
M559.271179,259.315674 
	C557.923584,259.623962 555.990051,259.245789 556.250610,261.581482 
	C556.480713,263.644165 561.811340,266.858185 564.313538,266.414948 
	C566.259888,266.070190 567.937195,265.053406 567.555542,262.802429 
	C566.920166,259.055206 563.963257,259.046326 561.028015,259.223572 
	C560.698242,259.243500 560.367981,259.255981 559.271179,259.315674 
M519.038574,298.193054 
	C520.489929,299.974457 522.107056,299.750549 523.043213,297.950409 
	C524.628052,294.902954 523.251221,292.310333 521.067566,289.426575 
	C519.165649,292.207397 517.992249,294.600464 519.038574,298.193054 
M493.367981,247.697968 
	C491.872772,247.765305 491.040985,248.628693 491.728241,249.947067 
	C492.734100,251.876556 494.576752,252.427780 496.905579,252.128311 
	C497.064545,249.696716 495.564240,248.753204 493.367981,247.697968 
M546.420349,287.027161 
	C543.700134,286.910706 545.035706,288.776550 545.354004,289.655334 
	C546.002258,291.444672 547.316956,292.284790 549.248962,291.133575 
	C549.938599,288.931915 548.356567,288.149719 546.420349,287.027161 
M502.690155,279.879608 
	C505.653961,281.260468 506.569122,279.477081 507.359039,277.076172 
	C504.284485,276.768951 504.284485,276.768951 502.690155,279.879608 
z" />
    <path fill="#047b3b" opacity="1.000000" stroke="none" d="
M632.395569,229.443604 
	C621.890808,234.844513 611.917053,240.625000 601.346741,244.945694 
	C593.222473,248.266495 584.558228,246.817444 576.715271,242.738846 
	C572.164185,240.372070 569.400879,236.535477 569.628906,231.049713 
	C569.801208,226.904663 572.036133,224.628601 575.987854,223.955856 
	C594.019043,220.886307 605.155701,210.137207 608.274353,192.419144 
	C608.841125,189.199356 609.966492,185.537720 606.279602,182.549118 
	C604.870056,184.709503 605.569824,186.879776 605.340088,188.875168 
	C603.739746,202.777084 597.295166,213.362793 584.226074,219.225006 
	C580.297424,220.987198 576.006470,221.798141 572.634644,218.166840 
	C569.412415,214.696640 568.622437,210.237976 570.810303,206.078476 
	C578.491333,191.475510 588.907349,180.125214 606.565430,178.338409 
	C617.647827,177.216995 630.584900,184.670303 635.751404,194.942688 
	C641.459595,206.292084 640.163940,220.693604 632.395569,229.443604 
M589.396729,229.856583 
	C601.222290,221.789200 613.890686,219.094803 627.789124,223.914536 
	C616.848572,217.841751 606.005981,218.357986 595.155701,223.957275 
	C587.242554,228.040802 584.838745,230.707794 585.043213,235.550064 
	C586.349365,233.736832 586.908875,231.509552 589.396729,229.856583 
z" />
    <path fill="#e87210" opacity="1.000000" stroke="none" d="
M523.917480,182.245209 
	C516.902527,183.527115 513.025391,180.503845 509.956177,174.870529 
	C505.176239,166.097260 501.529327,157.121262 501.830109,146.963776 
	C501.949310,142.938477 500.888824,139.439743 498.377930,136.309479 
	C497.551208,135.278793 496.799377,134.132797 496.275604,132.925720 
	C495.148010,130.327179 493.630768,127.366669 495.400757,124.851585 
	C497.008606,122.566971 500.108337,123.796638 502.471497,123.956451 
	C512.275513,124.619400 521.908264,123.535446 531.616150,122.287102 
	C537.740601,121.499550 543.836304,120.637947 549.890747,119.483330 
	C553.162109,118.859482 554.006592,120.517105 554.224487,123.277458 
	C554.474854,126.448677 553.411377,129.186493 551.677979,131.704361 
	C548.252380,136.680115 547.972473,142.055344 548.650818,147.921783 
	C549.850220,158.295822 549.997253,168.711456 552.975281,178.944656 
	C554.978638,185.828934 550.477539,188.916656 543.803223,186.328613 
	C537.557495,183.906738 531.143250,182.243027 523.917480,182.245209 
M533.878662,145.723572 
	C534.420837,146.726639 534.840454,147.825333 535.532349,148.711456 
	C536.715088,150.226059 538.268677,151.182419 540.251465,150.308151 
	C541.720093,149.660614 541.868408,148.244278 541.486450,146.928650 
	C540.746704,144.381058 539.141602,142.576447 536.374023,142.232330 
	C534.351257,141.980835 533.148254,142.738373 533.878662,145.723572 
z" />
    <path fill="#e87210" opacity="1.000000" stroke="none" d="
M478.078796,196.071518 
	C474.234711,199.279282 470.556793,202.148819 467.177338,205.334946 
	C464.797760,207.578339 463.120209,207.397217 460.954254,205.066833 
	C457.167969,200.993027 454.271942,196.363541 451.825256,191.439301 
	C449.812683,187.388733 447.004089,184.489670 442.639587,182.846298 
	C437.917175,181.068192 433.965607,178.046539 430.805084,173.984344 
	C428.731323,171.318970 429.135254,169.749741 432.143768,168.247437 
	C442.395111,163.128494 451.735138,156.474121 460.875092,149.697678 
	C469.327698,143.430801 478.578735,138.014572 485.235291,128.726685 
	C489.308868,133.482758 492.488037,137.630753 491.413696,143.468109 
	C490.459595,148.652084 491.319427,153.372696 494.157043,157.776581 
	C498.117767,163.923508 502.090942,170.062653 506.009613,176.236359 
	C507.140594,178.018204 508.414032,179.774979 508.814209,182.406403 
	C498.052307,185.776901 487.527252,189.332245 478.078796,196.071518 
M485.099976,163.828278 
	C487.360474,163.650314 489.449280,163.084061 487.684296,160.279861 
	C486.136719,157.821075 483.612457,156.999847 480.757172,157.895355 
	C479.315277,158.347580 477.585266,159.147705 477.852386,160.813828 
	C478.333801,163.816483 481.112762,163.526993 483.339264,163.851471 
	C483.662872,163.898651 483.998962,163.860214 485.099976,163.828278 
M459.599487,181.733994 
	C460.198608,179.661240 460.136566,177.721817 458.021271,176.552917 
	C456.926849,175.948181 455.691162,176.153000 454.911743,177.234528 
	C453.857086,178.697998 453.724854,180.436066 454.656189,181.905075 
	C455.855743,183.797241 457.537415,183.920425 459.599487,181.733994 
z" />
    <path fill="#047b3b" opacity="1.000000" stroke="none" d="
M460.289368,213.475281 
	C455.280457,220.514236 452.256866,228.237122 448.621735,236.441513 
	C442.324219,230.521317 443.547638,221.688004 437.791077,215.763885 
	C437.953094,220.126450 440.753174,223.602036 439.472778,227.640259 
	C435.731201,228.565704 434.080353,224.573517 430.551605,224.227203 
	C433.819000,232.777328 442.449493,236.506287 448.089935,244.222473 
	C440.411987,245.884537 433.610901,244.389252 426.239807,245.419403 
	C431.754700,248.622543 437.271515,248.740250 442.593170,249.285217 
	C446.131866,249.647614 447.474060,250.924881 447.390228,254.564529 
	C447.276550,259.500427 447.757690,264.450073 447.971008,269.116333 
	C446.489105,270.364258 445.384979,269.705353 444.401489,269.195831 
	C427.670135,260.527466 413.364197,249.178818 404.032654,232.395386 
	C401.591217,228.004257 399.567841,223.378235 398.862946,218.404617 
	C396.755310,203.533997 407.783478,193.470306 423.386139,196.164154 
	C434.142822,198.021317 444.075592,202.379776 453.741638,207.326904 
	C455.516968,208.235535 457.221802,209.287537 458.925323,210.328720 
	C459.950623,210.955368 460.829712,211.731445 460.289368,213.475281 
z" />
    <path fill="#9f0124" opacity="1.000000" stroke="none" d="
M446.068573,388.485352 
	C438.400421,387.989899 438.507202,387.993011 438.298584,395.175659 
	C438.231689,397.479248 439.684662,400.980042 436.666168,401.814209 
	C432.559326,402.949097 428.065735,402.927490 423.850677,401.737823 
	C422.477844,401.350342 422.710632,399.465210 422.691895,398.156799 
	C422.455994,381.665894 422.273773,365.174194 422.007385,348.683838 
	C421.950928,345.189850 423.180206,343.525787 426.959167,343.608337 
	C435.286774,343.790344 443.623932,343.526215 451.952057,343.696136 
	C462.267456,343.906616 470.370941,349.352509 473.075409,357.565765 
	C476.341583,367.484833 473.405945,377.180634 465.126251,383.897858 
	C464.368286,384.512756 463.702118,385.240784 462.844727,386.057953 
	C465.331207,391.714325 470.772247,395.480988 472.682465,401.892700 
	C467.667023,402.671295 463.050598,402.497528 458.450409,402.193817 
	C456.414734,402.059418 455.501434,400.211975 454.332275,398.821960 
	C451.558044,395.523682 449.975433,391.306793 446.068573,388.485352 
M457.382904,361.289764 
	C456.739227,360.539734 456.225800,359.589264 455.430573,359.072449 
	C450.570557,355.914062 444.961884,356.356323 440.095428,357.869446 
	C436.396667,359.019501 438.455444,363.757050 438.369019,366.846344 
	C438.140961,374.998505 438.318085,375.003418 448.000244,374.789703 
	C456.802185,374.595367 460.048737,370.308105 457.382904,361.289764 
z" />
    <path fill="#047b3b" opacity="1.000000" stroke="none" d="
M537.554810,320.849487 
	C531.021423,324.499603 523.952881,324.363831 517.080505,324.032562 
	C472.390411,321.878693 448.756927,286.445038 453.194977,246.558273 
	C456.209686,219.463501 478.120941,191.968658 510.974976,187.293106 
	C521.270325,185.827957 531.606201,186.005951 541.560608,189.648911 
	C543.359985,190.307404 546.698364,190.097214 545.964233,193.171021 
	C545.315491,195.887634 542.581848,195.034286 540.418152,194.754990 
	C528.935852,193.272812 517.611389,193.197540 506.413818,197.082291 
	C477.393158,207.150330 460.719696,232.969070 463.322601,264.283844 
	C465.515747,290.669495 487.730743,313.094635 516.267029,317.896820 
	C521.564026,318.788177 526.855713,318.949188 532.190186,318.976196 
	C534.074768,318.985718 536.282532,318.225525 537.554810,320.849487 
z" />
    <path fill="#9f0124" opacity="1.000000" stroke="none" d="
M541.058838,386.679688 
	C535.547852,399.638519 523.128540,405.796661 508.899261,402.938934 
	C495.985138,400.345337 488.102844,390.733215 487.866119,376.973022 
	C487.702942,367.486420 487.958191,357.991638 487.731995,348.507538 
	C487.636780,344.515839 489.384644,343.075653 493.028503,343.132050 
	C493.361053,343.137207 493.694031,343.114105 494.026825,343.103821 
	C503.915405,342.797882 504.199341,343.065063 504.212677,352.734375 
	C504.224152,361.058136 504.138306,369.383362 504.269989,377.705170 
	C504.385712,385.018372 508.529907,389.368652 515.094238,389.403625 
	C522.338684,389.442230 526.516663,385.463928 526.657227,377.928741 
	C526.837280,368.276062 526.875305,358.615814 526.700195,348.963776 
	C526.624878,344.814484 528.215088,343.397858 532.282043,343.529419 
	C544.232605,343.916046 543.111023,341.629852 542.975403,354.012878 
	C542.857300,364.793640 544.069153,375.667267 541.058838,386.679688 
z" />
    <path fill="#9f0124" opacity="1.000000" stroke="none" d="
M610.879028,358.809540 
	C612.896484,376.189270 605.455750,385.591614 588.645264,387.473999 
	C586.825256,387.677765 584.991821,388.069672 583.180542,387.993408 
	C572.457031,387.542114 574.286194,388.846100 574.365356,396.952057 
	C574.405029,401.012268 573.133301,402.608032 568.944031,402.467529 
	C557.849854,402.095398 558.691589,404.997070 558.658691,392.151001 
	C558.622009,377.818085 558.740784,363.483765 558.563049,349.152863 
	C558.513794,345.178528 559.649170,343.560425 563.880737,343.484253 
	C573.204468,343.316254 582.530762,342.453857 591.829590,343.680328 
	C600.952515,344.883575 607.809387,349.165253 610.879028,358.809540 
M583.416199,357.118561 
	C582.255859,357.123566 581.087952,357.045685 579.936890,357.151459 
	C577.752136,357.352142 574.479553,356.605164 574.587646,359.962982 
	C574.740051,364.697784 572.425476,369.865753 576.385315,374.112213 
	C576.670837,374.418457 577.311218,374.485260 577.792603,374.503174 
	C582.090332,374.663269 586.423950,375.137512 590.572754,373.496887 
	C593.965149,372.155334 595.938904,369.849030 595.939026,365.975708 
	C595.939270,359.805756 592.873840,357.404083 583.416199,357.118561 
z" />
    <path fill="#e87210" opacity="1.000000" stroke="none" d="
M586.280762,299.294464 
	C582.767517,298.758240 581.878479,296.628601 581.737122,293.872467 
	C581.475220,288.767456 583.118591,284.269501 586.618225,280.684967 
	C588.877441,278.370880 589.911682,275.940643 590.037903,272.755402 
	C590.319153,265.660461 593.435120,260.702545 600.952454,259.396729 
	C603.159912,259.013245 604.789368,257.701508 606.373779,256.099792 
	C609.927551,252.507263 614.432312,250.010498 619.410706,251.254364 
	C632.806152,254.601212 640.936096,247.843414 647.692810,237.711929 
	C649.032593,235.703018 649.751404,233.094193 652.539795,232.051987 
	C654.926880,233.632812 655.103699,236.250214 655.172546,238.620605 
	C655.258728,241.589096 656.093140,243.488113 659.045410,243.078949 
	C660.431030,245.676514 657.691772,246.777847 658.124695,248.847412 
	C661.114563,251.100830 665.304199,248.242096 668.562561,250.958984 
	C667.762573,254.141647 665.033447,254.610565 662.584534,255.292603 
	C658.188660,256.516876 653.646179,255.932663 649.170044,256.173309 
	C638.254456,256.760223 632.515869,261.226257 630.343933,271.892334 
	C628.881714,279.073029 625.616272,283.808136 617.943909,284.692474 
	C614.967285,285.035553 612.998169,287.026306 610.889893,289.009613 
	C604.132019,295.366913 596.168701,299.146271 586.280762,299.294464 
M614.868652,269.815643 
	C609.588379,274.366180 603.011658,277.111969 597.813477,281.828186 
	C605.289368,280.691864 611.604004,277.481689 616.552124,271.859436 
	C617.642090,270.621002 619.128479,268.609344 614.868652,269.815643 
M616.253662,261.584137 
	C618.438782,261.171143 620.623901,260.758179 623.300232,260.252319 
	C618.442383,257.410980 616.425293,257.868866 616.253662,261.584137 
z" />
    <path fill="#e87210" opacity="1.000000" stroke="none" d="
M545.598816,249.691315 
	C538.142944,251.733490 531.066467,253.610321 524.020386,255.595261 
	C520.149170,256.685852 518.803284,254.937744 518.731384,251.348434 
	C518.477905,238.694199 519.029236,226.026947 518.100037,213.383286 
	C517.880676,210.398651 518.980835,208.875916 522.326904,208.676483 
	C538.542542,207.710007 557.052368,218.910339 563.496399,233.816254 
	C566.890625,241.667404 566.044983,243.698792 558.017212,246.239380 
	C554.053955,247.493652 550.002441,248.469360 545.598816,249.691315 
M540.852356,225.560028 
	C538.516174,224.415665 536.096497,223.641129 533.244751,224.066086 
	C540.205078,226.231308 542.626526,234.756729 550.871277,237.069901 
	C549.545227,230.524933 545.282837,228.439316 540.852356,225.560028 
z" />
    <path fill="#9f0124" opacity="1.000000" stroke="none" d="
M644.607666,402.526825 
	C636.624817,402.480774 636.623352,402.480774 636.620056,394.925873 
	C636.615417,384.431396 636.497681,373.935059 636.663147,363.443237 
	C636.736389,358.799225 635.111633,356.509918 630.234924,357.100159 
	C628.757446,357.279022 627.239807,357.131287 625.740601,357.125427 
	C618.351746,357.096588 618.130859,356.642029 617.986572,349.107239 
	C617.898010,344.478729 619.856018,342.980682 624.218933,343.020172 
	C637.877197,343.143890 651.538940,343.171997 665.195984,342.991608 
	C669.873047,342.929840 671.244263,344.894501 671.072693,349.310791 
	C670.792603,356.519775 670.621521,357.022461 665.200562,357.155670 
	C652.951111,357.456757 652.961853,357.456818 652.904907,369.782104 
	C652.865662,378.265869 652.705872,386.750061 652.759399,395.233002 
	C652.803162,402.170685 652.566711,402.492767 644.607666,402.526825 
z" />
    <path fill="#9f0124" opacity="1.000000" stroke="none" d="
M401.322601,343.237457 
	C402.084167,343.317017 402.414154,343.370819 402.746216,343.393005 
	C409.559998,343.848114 412.360382,348.476044 409.759857,354.900085 
	C409.182007,356.327576 408.170715,356.971832 406.730377,357.077515 
	C405.734528,357.150543 404.734009,357.175507 403.735138,357.189667 
	C390.774628,357.373505 392.385040,355.604523 392.296967,368.663635 
	C392.232910,378.160553 392.156982,387.660553 392.338501,397.154388 
	C392.412109,401.003021 391.114258,402.508972 387.160461,402.434387 
	C374.478302,402.195190 375.922546,403.709564 375.829987,391.259003 
	C375.760620,381.928772 375.581726,372.589203 375.914642,363.270294 
	C376.090851,358.337494 374.240356,356.574158 369.559723,357.179596 
	C368.576569,357.306763 367.562683,357.197601 366.562958,357.195618 
	C358.564819,357.179657 358.762390,357.174713 358.567902,349.136047 
	C358.469482,345.067078 359.831177,343.631500 363.917542,343.436462 
	C376.245911,342.848022 388.567230,343.158508 401.322601,343.237457 
z" />
    <path fill="#9f0124" opacity="1.000000" stroke="none" d="
M447.948669,282.896790 
	C449.324860,289.392914 448.396729,295.851471 451.329102,302.581329 
	C416.920502,317.156342 380.917755,319.254944 344.497253,318.816986 
	C348.693634,316.161041 353.548553,316.473999 358.121185,315.847015 
	C386.640747,311.936371 413.622650,303.795258 437.775604,287.630951 
	C439.981171,286.154877 441.972656,284.362488 444.134552,282.816193 
	C445.243286,282.023193 446.439026,280.447449 447.948669,282.896790 
z" />
    <path fill="#9f0124" opacity="1.000000" stroke="none" d="
M673.817505,318.361511 
	C648.852722,316.699127 625.071045,312.023102 601.567444,301.891968 
	C606.706543,297.775421 611.776123,295.108643 615.302734,290.589111 
	C616.592834,288.935822 618.338135,290.039032 619.803772,290.918884 
	C639.479065,302.730347 660.896545,309.812866 683.319275,314.015564 
	C690.171753,315.299957 697.156372,315.873688 704.073669,316.822449 
	C705.749878,317.052338 707.788147,316.346344 709.377686,319.177948 
	C697.322571,319.366211 685.802124,319.606689 673.817505,318.361511 
z" />
    <path fill="#9f0124" opacity="1.000000" stroke="none" d="
M697.182861,399.746399 
	C694.734802,404.181793 690.835449,401.697662 687.687805,402.419464 
	C682.505371,403.607788 681.364624,401.436035 681.435913,396.356293 
	C681.652710,380.906097 681.156311,365.447113 681.065063,349.990784 
	C681.025696,343.328094 681.393616,343.106110 688.203918,343.024323 
	C689.367554,343.010345 690.536133,343.086578 691.694275,343.004791 
	C695.968567,342.702759 697.466553,344.590210 697.410583,348.900574 
	C697.192688,365.689392 697.272949,382.482086 697.182861,399.746399 
z" />
    <path fill="#047b3b" opacity="1.000000" stroke="none" d="
M597.865051,136.811432 
	C606.723450,129.382050 617.345215,126.807716 627.748840,124.030655 
	C634.691711,122.177414 642.258240,125.955345 644.291931,131.205307 
	C644.766235,132.429703 645.476929,133.727203 644.234680,134.892487 
	C643.229858,135.834976 642.022827,135.483582 640.942566,135.052811 
	C624.695618,128.573975 611.263611,134.947220 599.072266,144.883408 
	C585.199097,156.190323 574.585083,170.631027 563.101196,184.207947 
	C560.202148,187.635391 557.293457,191.054611 554.393799,194.481491 
	C553.239990,195.845123 552.072510,196.839294 550.171570,195.557846 
	C548.028015,194.112808 549.255798,192.672501 550.091492,191.305267 
	C558.027649,178.320862 567.744690,166.729126 578.304688,155.847260 
	C584.555664,149.405838 591.149902,143.297562 597.865051,136.811432 
z" />
    <path fill="#e87210" opacity="1.000000" stroke="none" d="
M562.425781,188.459671 
	C578.553528,170.462448 593.794678,151.953979 616.562378,141.363617 
	C617.237488,144.288513 616.058960,144.875763 615.206299,145.581696 
	C596.656860,160.940399 583.072266,180.479431 569.527039,200.025421 
	C567.601990,202.803299 565.974792,204.671677 563.028931,201.777176 
	C560.627441,199.417465 554.458435,198.676102 558.763794,193.011612 
	C559.869507,191.556900 561.052185,190.160706 562.425781,188.459671 
z" />
    <path fill="#047b3b" opacity="1.000000" stroke="none" d="
M575.041138,140.093384 
	C580.323425,124.230606 599.107910,112.019768 615.537231,113.428528 
	C618.266418,113.662552 621.191833,114.086433 621.435852,117.563004 
	C621.667725,120.866280 619.150696,122.160683 616.384949,122.750977 
	C614.609070,123.129982 612.756409,123.180649 610.933044,123.300140 
	C600.675964,123.972305 592.330139,128.023972 586.626282,136.869827 
	C585.456421,138.684036 584.268555,140.539917 582.788818,142.090042 
	C579.546814,145.486313 577.159546,144.926300 575.041138,140.093384 
z" />
    <path fill="#9f0124" opacity="1.000000" stroke="none" d="
M412.945801,421.409058 
	C417.003021,418.217896 418.146393,420.403931 418.201080,423.996735 
	C418.309906,431.147308 418.322723,438.300507 418.261871,445.451660 
	C418.247559,447.134644 418.978271,449.361053 416.476807,450.060852 
	C414.178406,450.703888 412.727997,449.232452 411.421936,447.639160 
	C408.049377,443.524811 404.732056,439.363922 401.292572,435.306519 
	C400.041016,433.830078 398.989166,432.065277 396.839935,431.170868 
	C395.975922,436.243713 396.426453,441.210846 396.284637,446.150513 
	C396.233154,447.943665 396.502075,450.039734 393.781250,450.181427 
	C390.816925,450.335846 390.733368,448.205566 390.726379,446.141479 
	C390.700409,438.490692 390.700928,430.839722 390.734009,423.188965 
	C390.740356,421.719391 390.573364,419.993134 392.348907,419.354401 
	C394.151489,418.705933 395.629547,419.643799 396.737366,420.974884 
	C400.458557,425.445831 404.088226,429.992889 407.800262,434.471558 
	C409.042542,435.970337 410.037567,437.752655 412.816803,438.999878 
	C412.816803,432.994263 412.816803,427.423676 412.945801,421.409058 
z" />
    <path fill="#9f0124" opacity="1.000000" stroke="none" d="
M640.307251,419.056702 
	C644.582520,418.994415 648.398621,418.742065 652.190979,419.470642 
	C656.696106,420.336212 660.484070,422.170898 661.832214,426.950989 
	C663.167542,431.685577 661.981873,435.799835 658.204895,439.080261 
	C657.724426,439.497559 657.318115,440.000275 656.929688,440.408478 
	C657.674438,443.940887 660.848999,445.942047 661.788696,449.467926 
	C658.807678,451.094635 656.510071,450.492981 654.682129,447.751892 
	C653.853455,446.509277 652.933533,445.304626 652.280090,443.972351 
	C650.635254,440.618652 647.647522,441.179871 644.902222,441.467590 
	C641.702393,441.802979 642.492432,444.487732 642.370911,446.525726 
	C642.260742,448.372284 642.470276,450.379303 639.707214,450.334076 
	C637.227234,450.293457 636.745239,448.627472 636.738586,446.617249 
	C636.712341,438.647308 636.716797,430.677277 636.665710,422.707550 
	C636.651428,420.492493 637.645020,419.295990 640.307251,419.056702 
M651.357056,436.159149 
	C654.741150,434.830811 657.367371,432.760254 656.368408,428.730438 
	C655.383301,424.756073 652.049500,424.101349 648.479553,424.228027 
	C647.317688,424.269226 646.153015,424.248169 644.992737,424.312073 
	C643.466614,424.396149 642.713257,425.190399 642.352417,426.741028 
	C640.522705,434.603546 642.637512,437.132477 651.357056,436.159149 
z" />
    <path fill="#9f0124" opacity="1.000000" stroke="none" d="
M526.787842,427.804504 
	C521.588745,433.219360 521.637939,433.180847 526.029968,438.793182 
	C528.756470,442.277252 532.070496,445.337433 534.291443,449.544556 
	C529.820190,451.502533 527.193909,449.479645 524.838684,446.324738 
	C522.673584,443.424408 520.326965,440.659607 518.009094,437.771271 
	C514.315491,439.750336 513.037964,442.497955 513.180176,446.138794 
	C513.260315,448.190033 513.155762,450.264679 510.215485,450.303650 
	C507.387390,450.341156 506.978882,448.426666 506.959717,446.300354 
	C506.889160,438.483459 506.886566,430.665924 506.845001,422.848724 
	C506.833191,420.626404 507.768066,419.448029 510.128052,419.477325 
	C512.348206,419.504913 513.006104,420.831268 513.030640,422.701385 
	C513.073608,425.977936 513.042664,429.255432 513.042664,433.008148 
	C521.000244,429.600647 523.408752,419.163757 533.746582,419.252838 
	C532.191162,423.474854 528.946167,424.969940 526.787842,427.804504 
z" />
    <path fill="#9f0124" opacity="1.000000" stroke="none" d="
M590.528687,419.082886 
	C591.797241,419.251251 592.623108,419.365875 593.442017,419.517853 
	C600.423950,420.813843 604.414856,424.954041 604.127197,430.592926 
	C603.833801,436.345490 598.914124,441.062897 592.226746,441.157379 
	C587.323425,441.226715 583.096375,441.103668 583.893555,447.937927 
	C584.067810,449.431580 582.742493,450.177521 581.173218,450.200195 
	C579.378296,450.226105 578.134705,449.397095 578.108643,447.646851 
	C577.979919,438.987854 577.924072,430.326416 577.985779,421.666870 
	C578.001038,419.531128 579.823608,419.068787 581.586060,419.033112 
	C584.417114,418.975800 587.250427,419.035950 590.528687,419.082886 
M593.554382,424.583160 
	C592.068237,424.473541 590.578796,424.243225 589.096863,424.284637 
	C587.217590,424.337128 584.607361,423.626495 584.289246,426.445953 
	C583.948669,429.464172 582.868652,432.907196 585.348999,435.444244 
	C587.729919,437.879547 594.623596,436.650208 596.608215,433.529541 
	C598.865234,429.980621 598.264954,426.909302 593.554382,424.583160 
z" />
    <path fill="#9f0124" opacity="1.000000" stroke="none" d="
M681.138672,450.363098 
	C677.005188,450.749451 675.586609,449.139801 675.667358,445.463989 
	C675.828308,438.134644 675.784973,430.796997 675.638428,423.466522 
	C675.574829,420.285858 676.775940,418.854584 679.986938,418.929474 
	C684.817810,419.042145 689.652832,418.970276 694.484192,419.069855 
	C696.171387,419.104614 698.067749,419.329590 698.044861,421.623871 
	C698.021851,423.938660 696.094055,424.025024 694.418823,424.088715 
	C691.588501,424.196350 688.752869,424.251923 685.921265,424.209259 
	C683.241455,424.168884 681.460632,424.777283 681.382812,428.031891 
	C681.305054,431.283203 682.941589,432.033722 685.708435,431.954041 
	C688.037781,431.886993 690.375061,431.945221 692.703552,432.057678 
	C694.115662,432.125916 695.407227,432.638245 695.505676,434.317108 
	C695.620605,436.277283 694.257812,436.911041 692.619934,437.004120 
	C690.292297,437.136414 687.954956,437.235077 685.626282,437.174255 
	C682.815063,437.100922 681.293945,437.963348 681.330566,441.155823 
	C681.366455,444.280426 682.374451,445.809692 685.693848,445.653961 
	C688.851929,445.505798 692.025269,445.634705 695.190430,445.706970 
	C696.561584,445.738281 697.953857,445.962311 698.056702,447.762939 
	C698.174194,449.820465 696.758057,450.264862 695.122131,450.284363 
	C690.622742,450.337982 686.122803,450.341339 681.138672,450.363098 
z" />
    <path fill="#9f0124" opacity="1.000000" stroke="none" d="
M438.163025,427.201447 
	C440.118042,424.146606 439.694550,419.365265 444.373962,419.340607 
	C448.793182,419.317322 448.853271,423.742188 450.229645,426.494110 
	C453.421692,432.876404 456.237213,439.447998 459.159119,445.963593 
	C459.679443,447.123932 460.597717,448.267578 459.816772,449.838257 
	C457.197662,450.943207 454.831757,450.608612 453.942902,447.578400 
	C452.805878,443.702393 450.221161,442.923279 446.713226,443.211517 
	C444.897156,443.360748 443.047852,443.380005 441.234192,443.221802 
	C438.191925,442.956360 436.138123,443.910614 435.204895,447.029572 
	C434.283203,450.109985 432.335846,451.249481 428.476013,449.389282 
	C431.691498,442.016296 434.847260,434.780334 438.163025,427.201447 
M441.956146,438.604126 
	C444.194061,438.460480 447.630249,439.334656 448.088501,436.842651 
	C448.733063,433.337555 446.471619,430.102692 443.916656,426.487000 
	C442.357452,430.093384 441.036835,433.063751 439.791840,436.065430 
	C439.228638,437.423309 439.755646,438.296539 441.956146,438.604126 
z" />
    <path fill="#9f0124" opacity="1.000000" stroke="none" d="
M545.699463,449.595154 
	C543.472961,448.690826 541.156677,448.085327 542.118042,445.372742 
	C543.225281,442.248383 545.432129,444.358124 547.125854,444.735748 
	C550.384033,445.462097 553.615540,446.363739 556.941101,445.299591 
	C558.588989,444.772247 560.028442,443.820007 560.082153,441.861420 
	C560.129883,440.125244 558.864441,439.057800 557.455139,438.563110 
	C554.643188,437.576050 551.683472,437.008636 548.873840,436.016022 
	C545.185303,434.712830 542.482605,432.451813 542.470825,428.089172 
	C542.459106,423.762634 545.115601,421.493164 548.722900,419.979431 
	C553.138184,418.126617 557.512634,418.634247 561.822510,420.359711 
	C563.086365,420.865723 564.378479,421.569519 563.770325,423.278046 
	C563.258179,424.717072 562.095764,425.345184 560.584045,424.885101 
	C558.150024,424.144318 555.670349,424.082947 553.173462,424.255615 
	C551.018982,424.404694 549.077209,425.236969 548.754456,427.533600 
	C548.439148,429.777679 550.397278,430.614105 552.143005,431.236755 
	C554.957642,432.240692 557.870911,432.982758 560.645630,434.080231 
	C564.019653,435.414825 566.050903,437.969879 566.127014,441.686981 
	C566.200317,445.267914 564.008301,447.566376 561.093689,449.128967 
	C556.227539,451.737762 551.158203,451.324158 545.699463,449.595154 
z" />
    <path fill="#9f0124" opacity="1.000000" stroke="none" d="
M355.285950,446.237122 
	C355.911804,443.339935 357.334900,443.363190 359.421112,444.303619 
	C362.674835,445.770294 366.160004,446.212433 369.690613,445.576599 
	C371.411469,445.266663 372.902710,444.245422 373.283875,442.480103 
	C373.706909,440.520813 372.174255,439.254333 370.693542,438.645386 
	C368.258362,437.643829 365.614807,437.160095 363.084106,436.377106 
	C358.557800,434.976685 355.251923,432.447052 355.618530,427.165131 
	C355.971588,422.078613 359.735107,420.289642 363.973938,419.204559 
	C367.639648,418.266144 371.270569,418.767303 374.794952,419.958588 
	C376.202606,420.434357 377.798615,421.064545 376.972382,423.129028 
	C376.319702,424.759918 375.177521,425.216217 373.371796,424.820160 
	C371.278076,424.360901 369.094421,424.180054 366.945068,424.141022 
	C364.562744,424.097717 361.948334,424.319672 361.542633,427.341125 
	C361.167389,430.135376 363.575043,430.872314 365.640747,431.557465 
	C368.008026,432.342529 370.476532,432.839294 372.809326,433.707672 
	C376.673157,435.145966 379.518799,437.555603 379.234558,442.151123 
	C378.943298,446.860199 375.943695,449.283630 371.683167,450.252991 
	C365.672485,451.620514 359.849426,451.734802 355.285950,446.237122 
z" />
    <path fill="#9f0124" opacity="1.000000" stroke="none" d="
M493.735107,448.050415 
	C480.003387,454.840973 467.335724,447.901276 467.636047,434.146576 
	C467.773987,427.829529 470.920746,423.504913 476.421204,420.740631 
	C482.232361,417.820160 487.977051,418.154816 493.601929,421.286316 
	C494.818817,421.963745 495.933868,422.843628 495.025970,424.451355 
	C494.178162,425.952789 492.908112,426.597015 491.286774,425.584717 
	C489.210480,424.288330 486.923584,424.103485 484.571198,424.077576 
	C479.733917,424.024292 476.230072,426.176636 474.291138,430.565826 
	C472.348267,434.963867 473.115692,439.163330 476.405945,442.569794 
	C479.898743,446.185944 484.267517,446.533752 488.849884,444.808533 
	C489.777222,444.459412 490.610535,443.866425 491.528259,443.484467 
	C492.981140,442.879669 494.155121,443.525055 495.053192,444.597168 
	C496.326508,446.117065 495.053131,446.966766 493.735107,448.050415 
z" />
    <path fill="#047b3b" opacity="1.000000" stroke="none" d="
M636.144409,144.572037 
	C638.501404,145.478897 640.158630,146.647400 639.798523,149.047409 
	C639.436279,151.462158 637.724548,152.935867 635.380310,153.117722 
	C628.868896,153.622894 623.700989,156.481613 619.530945,161.416351 
	C618.198242,162.993347 616.471313,164.351120 614.355591,162.938171 
	C612.140991,161.459152 612.550049,159.266876 613.436401,157.136093 
	C616.777405,149.104080 626.630920,143.508377 636.144409,144.572037 
z" />
    <path fill="#9f0124" opacity="1.000000" stroke="none" d="
M621.821533,420.854248 
	C622.078369,429.688202 622.179565,438.131226 622.250854,446.574493 
	C622.267578,448.561249 621.863770,450.281647 619.283386,450.161987 
	C617.020020,450.057007 616.696655,448.470184 616.668457,446.698853 
	C616.544617,438.916626 616.326294,431.133514 616.371338,423.352051 
	C616.392639,419.665588 617.941895,417.852844 621.821533,420.854248 
z" />
</svg>